{"title":"La Source Des Femmes","uid":7114975,"size":1573895501,"categoryP":"video","categoryS":"movies","magnet":"?xt=urn:btih:3ba979d25d2a4875eec9a9425b393b16c3ecbde8&amp;dn=La+Source+Des+Femmes&amp;tr=udp%3A%2F%2Ftracker.openbittorrent.com%3A80&amp;tr=udp%3A%2F%2Fopen.demonii.com%3A1337&amp;tr=udp%3A%2F%2Ftracker.coppersurfer.tk%3A6969&amp;tr=udp%3A%2F%2Fexodus.desync.com%3A6969","seeders":9,"leechers":0,"uploader":"Aaaameida","files":-1,"time":1332190065,"description":"A comedy/drama set in a village and centered on a battle of the sexes, where women threaten to withhold sexual favors if their men refuse to fetch water from a remote well. \n\nFrench Subtitles \n\nwww.imdb.com/title/tt1686067/ \n\nFormat : AVI \nFormat/Info : Audio Video Interleave \nFile size : 1.47 GiB \nDuration : 1h 59mn \nOverall bit rate : 1 754 Kbps \nWriting application : VirtualDubMod 1.5.10.3 | www.virtualdub-fr.org || (build 2550/release) \nWriting library : VirtualDubMod build 2550/release \nVideo #0 \nID : 0 \nFormat : MPEG-4 Visual \nFormat profile : AdvancedSimple@L5 \nFormat settings, BVOP : Yes \nFormat settings, QPel : No \nFormat settings, GMC : No warppoints \nFormat settings, Matrix : Default (MPEG) \nCodec ID : XVID \nCodec ID/Hint : XviD \nDuration : 1h 59mn \nBit rate : 1 360 Kbps \nWidth : 704 pixels \nHeight : 384 pixels \nDisplay aspect ratio : 16:9 \nFrame rate : 25.000 fps \nResolution : 24 bits \nColorimetry : 4:2:0 \nScan type : Progressive \nBits/(Pixel*Frame) : 0.201 \nStream size : 1.14 GiB (78%) \nWriting library : XviD 1.2.1 (UTC 2008-12-04) \nAudio #1 \nID : 1 \nFormat : AC-3 \nFormat/Info : Audio Coding 3 \nCodec ID : 2000 \nDuration : 1h 59mn \nBit rate mode : Constant \nBit rate : 384 Kbps \nChannel(s) : 6 channels \nChannel positions : Front: L C R, Surround: L R, LFE \nSampling rate : 48.0 KHz \nStream size : 329 MiB (22%) \nAlignment : Split accross interleaves \nInterleave, duration : 40 ms (1.00 video frame) \nInterleave, preload duration : 500 ms","torrent":{"xt":"urn:btih:3ba979d25d2a4875eec9a9425b393b16c3ecbde8","amp;dn":"La+Source+Des+Femmes","amp;tr":["udp%3A%2F%2Ftracker.openbittorrent.com%3A80","udp%3A%2F%2Fopen.demonii.com%3A1337","udp%3A%2F%2Ftracker.coppersurfer.tk%3A6969","udp%3A%2F%2Fexodus.desync.com%3A6969"],"infoHash":"3ba979d25d2a4875eec9a9425b393b16c3ecbde8","infoHashBuffer":{"type":"Buffer","data":[59,169,121,210,93,42,72,117,238,201,169,66,91,57,59,22,195,236,189,232]},"announce":[],"urlList":[]}}